# xmcd CD database file
#
# Track frame offsets:
#	150
#	18445
#	34299
#	51590
#	66799
#	79824
#	98986
#	114952
#	130896
#	151279
#	168149
#	180586
#	197133
#	213643
#	228044
#	245169
#	262336
#	280846
#
# Disc length: 3967 seconds
#
# Revision: 0
# Processed by: cddbd v1.5.1PL2 Copyright (c) Steve Scherf et al.
# Submitted via: CDex 1.51
#
DISCID=040f7d12
DTITLE=Varios - Canto da Gente
DYEAR=1900
DGENRE=Country
TTITLE0=Fromteiras - Fernando Perillo, Joao Caetano, Maria Eugenia e Padua
TTITLE1=Boa Tarde Goiás - Fernando Perillo, Joao Caetano, Maria Eugenia e Padua
TTITLE2=Pindorama - Fernando Perillo, Joao Caetano, Maria Eugenia e Padua
TTITLE3=Kalunga - Fernando Perillo, Joao Caetano, Maria Eugenia e Padua
TTITLE4=Canto da Gente - Fernando Perillo e  Joao Caetano
TTITLE5=Vambora Andar - Padua
TTITLE6=Amor de Menino - Maria Eugenia e Padua
TTITLE7=Partilha - Fernando Perillo e M aria Eugenia
TTITLE8=Goias Sempre no Coracao - Fernando Perillo, Joao Caetano, Maria Eugenia e Padua
TTITLE9=Roda Gigante - Joao Caetano e Maria Eugenia
TTITLE10=Ajutorio - Joao Caetano
TTITLE11=Vida no Campo- Joao Caetano e Padua
TTITLE12=Qui nen Jilo - So quero Um Xodo - Maria Eugenia
TTITLE13=Amargurado - Fernando Perillo
TTITLE14=Saudade Brejeira - Fernando Perillo, Joao Caetano, Maria Eugenia e Padua
TTITLE15=Peao Vira Mundo - Fernando Perillo, Joao Caetano, Maria Eugenia e Padua
TTITLE16=Aruanã - Fernando Perillo, Joao Caetano, Maria Eugenia e Padua
TTITLE17=Quando Tudo e Bom - Fernando Perillo, Joao Caetano, Maria Eugenia e Padua
EXTD=
EXTT0=
EXTT1=
EXTT2=
EXTT3=
EXTT4=
EXTT5=
EXTT6=
EXTT7=
EXTT8=
EXTT9=
EXTT10=
EXTT11=
EXTT12=
EXTT13=
EXTT14=
EXTT15=
EXTT16=
EXTT17=
PLAYORDER=
